<?xml version="1.0" standalone="no"?>
<!DOCTYPE svg PUBLIC "-//W3C//DTD SVG 20010904//EN"
 "http://www.w3.org/TR/2001/REC-SVG-20010904/DTD/svg10.dtd">
<svg version="1.0" xmlns="http://www.w3.org/2000/svg"
 width="231.000000pt" height="218.000000pt" viewBox="0 0 231.000000 218.000000"
 preserveAspectRatio="xMidYMid meet">

<g transform="translate(0.000000,218.000000) scale(0.100000,-0.100000)"
fill="#000000" stroke="none">
<path d="M253 2131 c-48 -55 -51 -69 -23 -102 20 -24 20 -24 35 -4 9 11 33 25
55 31 61 18 110 1 110 -38 0 -14 5 -18 15 -14 10 4 15 -1 15 -15 0 -39 23 -13
37 41 9 38 11 62 4 76 -13 29 -85 62 -151 69 l-55 6 -42 -50z"/>
<path d="M195 1845 c-16 -14 -57 -39 -91 -56 -74 -37 -92 -65 -100 -156 -8
-82 4 -314 17 -334 7 -12 15 -10 48 9 22 12 42 22 45 22 2 0 24 -37 49 -82 26
-49 68 -106 102 -140 46 -46 56 -62 53 -85 -2 -17 -10 -29 -21 -31 -33 -7 -84
46 -163 168 -86 133 -86 133 -98 25 -7 -65 -4 -72 35 -97 24 -15 27 -24 33
-110 4 -51 14 -121 22 -156 9 -35 13 -73 10 -85 -3 -12 -6 -115 -6 -227 l-1
-205 55 0 c61 1 87 15 68 38 -8 9 -9 24 -3 45 5 17 15 91 21 164 7 73 24 183
40 245 25 102 31 116 76 167 l49 56 102 0 102 0 10 -37 c44 -168 52 -209 46
-243 -6 -36 -5 -38 27 -43 18 -2 48 2 67 9 l34 14 -7 108 c-4 59 -15 152 -24
207 l-17 100 -70 43 c-44 26 -72 51 -75 65 -3 12 -19 28 -34 36 -27 12 -30 12
-52 -15 -13 -16 -38 -57 -55 -92 -35 -69 -72 -104 -103 -100 -37 5 -31 47 14
106 44 58 41 58 -33 4 -26 -19 -50 -33 -52 -30 -2 2 -11 30 -20 63 -19 74 -19
147 0 300 22 172 20 245 -7 292 -20 36 -45 63 -57 63 -3 -1 -19 -12 -36 -25z"/>
<path d="M400 1627 c0 -234 6 -280 44 -324 l23 -27 22 42 c25 49 47 53 84 17
34 -35 39 -23 45 96 5 103 -5 175 -39 286 -18 56 -24 65 -61 84 -23 12 -58 27
-80 35 l-38 13 0 -222z"/>
<path d="M1172 1778 c-17 -17 -17 -569 0 -586 8 -8 60 -12 170 -12 l158 0 -7
-32 c-3 -18 -15 -43 -26 -55 l-20 -23 146 0 c81 0 147 3 147 6 0 3 -9 13 -19
22 -10 10 -21 32 -25 50 l-5 32 157 0 c110 0 162 4 170 12 9 9 12 88 12 295 0
269 -1 283 -19 293 -30 15 -823 14 -839 -2z m629 -18 l199 0 0 -230 0 -230
-405 0 -405 0 0 230 0 230 200 0 c153 0 200 3 201 13 0 10 2 10 6 0 3 -10 54
-13 204 -13z m-191 -540 c0 -11 -6 -20 -14 -20 -18 0 -29 16 -21 30 11 18 35
11 35 -10z"/>
<path d="M1637 1052 c-32 -13 4 -33 71 -39 61 -6 84 5 58 26 -18 15 -105 23
-129 13z"/>
<path d="M1017 1030 c-5 -20 -1 -20 270 -20 256 0 274 1 271 18 -3 16 -25 17
-269 20 -260 2 -267 2 -272 -18z"/>
<path d="M346 805 c11 -8 41 -14 69 -14 28 0 58 6 69 14 18 14 11 15 -69 15
-80 0 -87 -1 -69 -15z"/>
<path d="M1910 790 c8 -5 40 -10 70 -10 30 0 62 5 70 10 10 7 -11 10 -70 10
-59 0 -80 -3 -70 -10z"/>
<path d="M345 690 c3 -5 35 -10 70 -10 35 0 67 5 70 10 4 6 -22 10 -70 10 -48
0 -74 -4 -70 -10z"/>
<path d="M1915 670 c3 -5 33 -10 65 -10 32 0 62 5 65 10 4 6 -20 10 -65 10
-45 0 -69 -4 -65 -10z"/>
<path d="M756 591 c-9 -10 -19 -34 -23 -54 -5 -33 -3 -35 26 -42 43 -9 139 4
145 21 3 8 -2 20 -11 26 -8 7 -28 25 -43 41 -33 31 -70 35 -94 8z"/>
<path d="M350 525 c17 -20 109 -20 136 0 17 13 11 14 -65 15 -73 0 -82 -2 -71
-15z"/>
<path d="M1916 505 c10 -8 39 -14 64 -14 25 0 54 6 64 14 18 14 12 15 -64 15
-76 0 -82 -1 -64 -15z"/>
<path d="M345 360 c3 -5 35 -10 70 -10 35 0 67 5 70 10 4 6 -22 10 -70 10 -48
0 -74 -4 -70 -10z"/>
<path d="M1914 345 c27 -20 119 -20 136 0 11 13 2 15 -71 15 -76 -1 -82 -2
-65 -15z"/>
<path d="M162 148 c-6 -6 -12 -17 -12 -24 0 -6 -11 -23 -25 -38 -32 -35 -32
-64 1 -76 36 -14 61 -12 76 6 7 8 23 25 36 36 25 24 29 56 10 80 -17 22 -70
32 -86 16z"/>
</g>
</svg>
